<svg width="34" height="37" viewBox="0 0 34 37" fill="none" xmlns="http://www.w3.org/2000/svg">
<path d="M13.1122 0C12.1638 0 11.2542 0.361064 10.5835 1.00376C9.9129 1.64646 9.53613 2.51815 9.53613 3.42706V5.71177C9.53613 6.62068 9.9129 7.49237 10.5835 8.13507C11.2542 8.77777 12.1638 9.13883 13.1122 9.13883H20.2643C21.2128 9.13883 22.1223 8.77777 22.793 8.13507C23.4636 7.49237 23.8404 6.62068 23.8404 5.71177V3.42706C23.8404 2.51815 23.4636 1.64646 22.793 1.00376C22.1223 0.361064 21.2128 0 20.2643 0L13.1122 0ZM20.2643 2.28471C20.5805 2.28471 20.8837 2.40506 21.1072 2.61929C21.3308 2.83353 21.4563 3.12409 21.4563 3.42706V5.71177C21.4563 6.01474 21.3308 6.3053 21.1072 6.51953C20.8837 6.73377 20.5805 6.85412 20.2643 6.85412H13.1122C12.7961 6.85412 12.4929 6.73377 12.2693 6.51953C12.0458 6.3053 11.9202 6.01474 11.9202 5.71177V3.42706C11.9202 3.12409 12.0458 2.83353 12.2693 2.61929C12.4929 2.40506 12.7961 2.28471 13.1122 2.28471H20.2643Z" fill="#B950EF"/>
<path d="M7.15213 3.427H4.76809C3.50351 3.427 2.29073 3.90842 1.39654 4.76535C0.50235 5.62228 0 6.78453 0 7.99642V31.9858C0 33.1977 0.50235 34.36 1.39654 35.2169C2.29073 36.0738 3.50351 36.5553 4.76809 36.5553H28.6085C29.8731 36.5553 31.0859 36.0738 31.9801 35.2169C32.8742 34.36 33.3766 33.1977 33.3766 31.9858V7.99642C33.3766 6.78453 32.8742 5.62228 31.9801 4.76535C31.0859 3.90842 29.8731 3.427 28.6085 3.427H26.2245V5.71171C26.2245 6.46179 26.0703 7.20453 25.7708 7.89751C25.4713 8.59049 25.0322 9.22015 24.4788 9.75054C23.9253 10.2809 23.2683 10.7017 22.5452 10.9887C21.8221 11.2757 21.0471 11.4235 20.2644 11.4235H13.1122C11.5315 11.4235 10.0155 10.8217 8.8978 9.75054C7.78007 8.67938 7.15213 7.22656 7.15213 5.71171V3.427ZM21.4564 18.2776C21.4564 17.6717 21.7076 17.0905 22.1547 16.6621C22.6017 16.2336 23.2081 15.9929 23.8404 15.9929C24.4727 15.9929 25.0791 16.2336 25.5262 16.6621C25.9733 17.0905 26.2245 17.6717 26.2245 18.2776V29.7011C26.2245 30.3071 25.9733 30.8882 25.5262 31.3167C25.0791 31.7451 24.4727 31.9858 23.8404 31.9858C23.2081 31.9858 22.6017 31.7451 22.1547 31.3167C21.7076 30.8882 21.4564 30.3071 21.4564 29.7011V18.2776ZM7.15213 27.4164C7.15213 26.8105 7.4033 26.2294 7.8504 25.8009C8.29749 25.3724 8.90388 25.1317 9.53617 25.1317C10.1685 25.1317 10.7748 25.3724 11.2219 25.8009C11.669 26.2294 11.9202 26.8105 11.9202 27.4164V29.7011C11.9202 30.3071 11.669 30.8882 11.2219 31.3167C10.7748 31.7451 10.1685 31.9858 9.53617 31.9858C8.90388 31.9858 8.29749 31.7451 7.8504 31.3167C7.4033 30.8882 7.15213 30.3071 7.15213 29.7011V27.4164ZM16.6883 20.5623C17.3206 20.5623 17.927 20.803 18.3741 21.2315C18.8212 21.66 19.0723 22.2411 19.0723 22.847V29.7011C19.0723 30.3071 18.8212 30.8882 18.3741 31.3167C17.927 31.7451 17.3206 31.9858 16.6883 31.9858C16.056 31.9858 15.4496 31.7451 15.0025 31.3167C14.5554 30.8882 14.3043 30.3071 14.3043 29.7011V22.847C14.3043 22.2411 14.5554 21.66 15.0025 21.2315C15.4496 20.803 16.056 20.5623 16.6883 20.5623Z" fill="#B950EF"/>
</svg>
