<svg width="18" height="18" viewBox="0 0 18 18" fill="none" xmlns="http://www.w3.org/2000/svg">
<path d="M7.98028 14.9507C7.73916 15.1917 7.41219 15.3271 7.07126 15.3271C6.73033 15.3271 6.40336 15.1917 6.16225 14.9507L0.376446 9.1649C0.135406 8.92379 0 8.59682 0 8.25589C0 7.91496 0.135406 7.58798 0.376446 7.34687L6.16225 1.56107C6.40474 1.32686 6.72952 1.19727 7.06663 1.2002C7.40375 1.20313 7.72623 1.33835 7.96461 1.57673C8.203 1.81512 8.33822 2.1376 8.34115 2.47471C8.34408 2.81183 8.21448 3.13661 7.98028 3.3791L4.49979 6.97015H16.7143C17.0553 6.97015 17.3823 7.10561 17.6234 7.34674C17.8645 7.58786 18 7.91489 18 8.25589C18 8.59688 17.8645 8.92392 17.6234 9.16504C17.3823 9.40616 17.0553 9.54162 16.7143 9.54162H4.49979L7.98028 13.1327C8.22131 13.3738 8.35672 13.7008 8.35672 14.0417C8.35672 14.3826 8.22131 14.7096 7.98028 14.9507Z" fill="#505050"/>
</svg>
