<svg width="13" height="9" viewBox="0 0 13 9" fill="none" xmlns="http://www.w3.org/2000/svg">
<path fill-rule="evenodd" clip-rule="evenodd" d="M9.56967 0C9.63174 3.26233e-05 9.69291 0.0129979 9.74809 0.0378191C9.80327 0.0626404 9.85087 0.0986012 9.88694 0.142714L12.7748 3.66943C12.9151 3.84091 12.9934 4.04519 12.9996 4.2559C13.0058 4.46662 12.9395 4.67412 12.8094 4.85164L9.87885 8.85214C9.84559 8.89741 9.79986 8.93466 9.74585 8.9605C9.69183 8.98633 9.63126 8.99991 9.56967 9H1.20799C0.541056 9 0 8.5275 0 7.94507V1.05429C0 0.4725 0.541056 0 1.20799 0H9.56967ZM8.35801 2.02243C8.32382 1.99249 8.2832 1.96875 8.23848 1.95254C8.19377 1.93634 8.14583 1.928 8.09742 1.928C8.049 1.928 8.00107 1.93634 7.95635 1.95254C7.91163 1.96875 7.87102 1.99249 7.83683 2.02243L5.53495 4.03329L3.25737 2.02371C3.18825 1.96485 3.09541 1.93207 2.99887 1.93242C2.90233 1.93277 2.80981 1.96624 2.74126 2.0256C2.6727 2.08496 2.6336 2.16547 2.63238 2.24977C2.63115 2.33408 2.66791 2.41543 2.73472 2.47629L5.01451 4.48779L2.68393 6.52243C2.61481 6.58278 2.57599 6.66464 2.57599 6.75C2.57599 6.83536 2.61481 6.91722 2.68393 6.97757C2.75304 7.03793 2.84678 7.07183 2.94452 7.07183C3.04226 7.07183 3.13599 7.03793 3.2051 6.97757L5.53274 4.94421L7.83609 6.97564C7.90565 7.03214 7.99753 7.06297 8.09251 7.06168C8.1875 7.06038 8.27823 7.02706 8.34573 6.96869C8.41324 6.91032 8.45229 6.83142 8.45471 6.74849C8.45713 6.66556 8.42275 6.58502 8.35874 6.52371L6.05319 4.48971L8.35727 2.47757C8.39155 2.44771 8.41874 2.41224 8.4373 2.37319C8.45585 2.33414 8.4654 2.29228 8.4654 2.25C8.4654 2.20772 8.45585 2.16586 8.4373 2.12681C8.41874 2.08776 8.39228 2.05229 8.35801 2.02243Z" fill="#6D6D6D"/>
</svg>
