<svg width="10" height="12" viewBox="0 0 10 12" fill="none" xmlns="http://www.w3.org/2000/svg">
<path d="M5.598 4.28143L5.374 5.14286H4.404L4.626 4.28143H5.598ZM2 0H8C8.53043 0 9.03914 0.180612 9.41421 0.502103C9.78929 0.823594 10 1.25963 10 1.71429V9.85457C10 9.96824 9.94732 10.0772 9.85355 10.1576C9.75979 10.238 9.63261 10.2831 9.5 10.2831H1V10.2857C1 10.513 1.10536 10.7311 1.29289 10.8918C1.48043 11.0526 1.73478 11.1429 2 11.1429H9.5C9.63261 11.1429 9.75979 11.188 9.85355 11.2684C9.94732 11.3488 10 11.4578 10 11.5714C10 11.6851 9.94732 11.7941 9.85355 11.8745C9.75979 11.9548 9.63261 12 9.5 12H2C1.46957 12 0.960859 11.8194 0.585786 11.4979C0.210714 11.1764 0 10.7404 0 10.2857V1.71429C0 1.25963 0.210714 0.823594 0.585786 0.502103C0.960859 0.180612 1.46957 0 2 0ZM4.988 2.88C5.01664 2.76895 4.99265 2.6527 4.92129 2.55681C4.84993 2.46093 4.73706 2.39327 4.6075 2.36871C4.47794 2.34416 4.34231 2.36473 4.23045 2.4259C4.11858 2.48706 4.03964 2.58381 4.011 2.69486L3.823 3.42429H3C2.86739 3.42429 2.74021 3.46944 2.64645 3.54981C2.55268 3.63018 2.5 3.73919 2.5 3.85286C2.5 3.96652 2.55268 4.07553 2.64645 4.1559C2.74021 4.23628 2.86739 4.28143 3 4.28143H3.601L3.38 5.14286H2.5C2.36739 5.14286 2.24021 5.18801 2.14645 5.26838C2.05268 5.34876 2 5.45776 2 5.57143C2 5.68509 2.05268 5.7941 2.14645 5.87447C2.24021 5.95485 2.36739 6 2.5 6H3.158L3.016 6.54686C2.98736 6.65791 3.01135 6.77416 3.08271 6.87005C3.15407 6.96593 3.26694 7.03359 3.3965 7.05814C3.52606 7.08269 3.66169 7.06213 3.77355 7.00096C3.88542 6.9398 3.96436 6.84305 3.993 6.732L4.182 6H5.151L5.008 6.546C4.99369 6.60093 4.99213 6.65774 5.00343 6.71318C5.01473 6.76863 5.03866 6.82162 5.07386 6.86914C5.10905 6.91665 5.15482 6.95776 5.20855 6.99012C5.26228 7.02248 5.32292 7.04545 5.387 7.05771C5.45109 7.06998 5.51736 7.07131 5.58205 7.06163C5.64673 7.05194 5.70856 7.03143 5.76399 7.00127C5.81943 6.9711 5.86739 6.93187 5.90514 6.88582C5.94289 6.83976 5.96969 6.78779 5.984 6.73286L6.175 6H7C7.13261 6 7.25979 5.95485 7.35355 5.87447C7.44732 5.7941 7.5 5.68509 7.5 5.57143C7.5 5.45776 7.44732 5.34876 7.35355 5.26838C7.25979 5.18801 7.13261 5.14286 7 5.14286H6.398L6.623 4.28143H7.5C7.63261 4.28143 7.75979 4.23628 7.85355 4.1559C7.94732 4.07553 8 3.96652 8 3.85286C8 3.73919 7.94732 3.63018 7.85355 3.54981C7.75979 3.46944 7.63261 3.42429 7.5 3.42429H6.846L6.987 2.88171C7.00131 2.82678 7.00287 2.76998 6.99157 2.71453C6.98027 2.65909 6.95634 2.60609 6.92114 2.55858C6.88595 2.51106 6.84018 2.46995 6.78645 2.43759C6.73272 2.40524 6.67208 2.38227 6.608 2.37C6.54391 2.35773 6.47764 2.3564 6.41295 2.36609C6.34827 2.37577 6.28644 2.39628 6.23101 2.42645C6.11905 2.48737 6.03991 2.58392 6.011 2.69486L5.821 3.42429H4.847L4.988 2.88Z" fill="#6D6D6D"/>
</svg>
