<svg width="12" height="14" viewBox="0 0 12 14" fill="none" xmlns="http://www.w3.org/2000/svg">
<path d="M1.5 0C0.671875 0 0 0.587891 0 1.3125V12.6875C0 13.4121 0.671875 14 1.5 14H4.5V11.8125C4.5 11.0879 5.17188 10.5 6 10.5C6.82812 10.5 7.5 11.0879 7.5 11.8125V14H10.5C11.3281 14 12 13.4121 12 12.6875V1.3125C12 0.587891 11.3281 0 10.5 0H1.5ZM2 6.5625C2 6.32188 2.225 6.125 2.5 6.125H3.5C3.775 6.125 4 6.32188 4 6.5625V7.4375C4 7.67812 3.775 7.875 3.5 7.875H2.5C2.225 7.875 2 7.67812 2 7.4375V6.5625ZM5.5 6.125H6.5C6.775 6.125 7 6.32188 7 6.5625V7.4375C7 7.67812 6.775 7.875 6.5 7.875H5.5C5.225 7.875 5 7.67812 5 7.4375V6.5625C5 6.32188 5.225 6.125 5.5 6.125ZM8 6.5625C8 6.32188 8.225 6.125 8.5 6.125H9.5C9.775 6.125 10 6.32188 10 6.5625V7.4375C10 7.67812 9.775 7.875 9.5 7.875H8.5C8.225 7.875 8 7.67812 8 7.4375V6.5625ZM2.5 2.625H3.5C3.775 2.625 4 2.82188 4 3.0625V3.9375C4 4.17812 3.775 4.375 3.5 4.375H2.5C2.225 4.375 2 4.17812 2 3.9375V3.0625C2 2.82188 2.225 2.625 2.5 2.625ZM5 3.0625C5 2.82188 5.225 2.625 5.5 2.625H6.5C6.775 2.625 7 2.82188 7 3.0625V3.9375C7 4.17812 6.775 4.375 6.5 4.375H5.5C5.225 4.375 5 4.17812 5 3.9375V3.0625ZM8.5 2.625H9.5C9.775 2.625 10 2.82188 10 3.0625V3.9375C10 4.17812 9.775 4.375 9.5 4.375H8.5C8.225 4.375 8 4.17812 8 3.9375V3.0625C8 2.82188 8.225 2.625 8.5 2.625Z" fill="#6D6D6D"/>
</svg>
