<svg width="7" height="7" viewBox="0 0 7 7" fill="none" xmlns="http://www.w3.org/2000/svg">
<path d="M0.828311 5.85674C0.744961 5.94009 0.698136 6.05314 0.698136 6.17101C0.698136 6.28889 0.744962 6.40193 0.828311 6.48528C0.911661 6.56863 1.02471 6.61546 1.14258 6.61546C1.26045 6.61546 1.3735 6.56863 1.45685 6.48528L3.65674 4.28539L5.85663 6.48528C5.93998 6.56863 6.05302 6.61546 6.1709 6.61546C6.28877 6.61546 6.40182 6.56863 6.48517 6.48528C6.56851 6.40193 6.61534 6.28889 6.61534 6.17101C6.61534 6.05314 6.56852 5.94009 6.48517 5.85674L4.28528 3.65685L6.48517 1.45697C6.56852 1.37362 6.61534 1.26057 6.61534 1.1427C6.61534 1.02482 6.56851 0.911777 6.48517 0.828427C6.40182 0.745078 6.28877 0.698252 6.1709 0.698252C6.05302 0.698252 5.93998 0.745078 5.85663 0.828427L3.65674 3.02831L1.45685 0.828427C1.3735 0.745078 1.26045 0.698252 1.14258 0.698252C1.02471 0.698252 0.911661 0.745078 0.828311 0.828427C0.744962 0.911777 0.698137 1.02482 0.698137 1.1427C0.698136 1.26057 0.744962 1.37362 0.828311 1.45697L3.0282 3.65685L0.828311 5.85674Z" fill="#6D6D6D"/>
</svg>
