<svg width="11" height="11" viewBox="0 0 11 11" fill="none" xmlns="http://www.w3.org/2000/svg">
<path d="M0.916667 11C0.916667 11 0 11 0 10.0833C0 9.16667 0.916667 6.41667 5.5 6.41667C10.0833 6.41667 11 9.16667 11 10.0833C11 11 10.0833 11 10.0833 11H0.916667ZM5.5 5.5C6.22935 5.5 6.92882 5.21027 7.44454 4.69454C7.96027 4.17882 8.25 3.47935 8.25 2.75C8.25 2.02065 7.96027 1.32118 7.44454 0.805456C6.92882 0.289731 6.22935 0 5.5 0C4.77065 0 4.07118 0.289731 3.55546 0.805456C3.03973 1.32118 2.75 2.02065 2.75 2.75C2.75 3.47935 3.03973 4.17882 3.55546 4.69454C4.07118 5.21027 4.77065 5.5 5.5 5.5Z" fill="#6D6D6D"/>
</svg>
