<svg width="17" height="17" viewBox="0 0 17 17" fill="none" xmlns="http://www.w3.org/2000/svg">
<path fill-rule="evenodd" clip-rule="evenodd" d="M7.83146 0.270189C8.00999 0.0970048 8.25001 0 8.5 0C8.74999 0 8.99001 0.0970048 9.16854 0.270189L14.8989 5.94131L16.809 7.83169C16.9469 8.0137 17.0139 8.23885 16.9976 8.4658C16.9813 8.69275 16.8828 8.90627 16.7203 9.06715C16.5577 9.22803 16.342 9.32548 16.1126 9.34161C15.8833 9.35773 15.6558 9.29146 15.4719 9.15495L15.1854 8.87139V15.1096C15.1854 15.611 14.9841 16.0918 14.6259 16.4463C14.2677 16.8008 13.7819 17 13.2753 17H10.4101C10.1568 17 9.91389 16.9004 9.73479 16.7232C9.55568 16.5459 9.45506 16.3055 9.45506 16.0548V13.2193H7.54494V16.0548C7.54494 16.6219 7.16292 17 6.58989 17H3.72472C3.21813 17 2.73228 16.8008 2.37407 16.4463C2.01585 16.0918 1.81461 15.611 1.81461 15.1096V8.87139L1.52809 9.15495C1.34417 9.29146 1.11667 9.35773 0.887354 9.34161C0.658036 9.32548 0.442292 9.22803 0.279731 9.06715C0.11717 8.90627 0.0187011 8.69275 0.00240398 8.4658C-0.0138932 8.23885 0.0530746 8.0137 0.191013 7.83169L2.10112 5.94131L7.83146 0.270189Z" fill="#B950EF"/>
</svg>
