<svg width="17" height="17" viewBox="0 0 17 17" fill="none" xmlns="http://www.w3.org/2000/svg">
<path d="M8.05267 8.94739C10.5234 8.94739 12.5264 6.94445 12.5264 4.47369C12.5264 2.00294 10.5234 0 8.05267 0C5.58192 0 3.57898 2.00294 3.57898 4.47369C3.57898 6.94445 5.58192 8.94739 8.05267 8.94739Z" fill="#B950EF"/>
<path d="M0 16.4631V17H16.1053V16.4631C16.1053 14.4588 16.1053 13.4566 15.7152 12.691C15.3721 12.0175 14.8246 11.47 14.1511 11.1269C13.3856 10.7368 12.3834 10.7368 10.379 10.7368H5.72633C3.72193 10.7368 2.71974 10.7368 1.95415 11.1269C1.28072 11.47 0.733207 12.0175 0.390084 12.691C7.99959e-08 13.4566 0 14.4588 0 16.4631Z" fill="#B950EF"/>
</svg>
