<svg width="29" height="29" viewBox="0 0 29 29" fill="none" xmlns="http://www.w3.org/2000/svg">
<circle cx="14.5" cy="14.5" r="14.5" fill="#6D6D6D"/>
<path d="M13.6667 21.1667C13.6667 21.3877 13.7545 21.5996 13.9107 21.7559C14.067 21.9122 14.279 22 14.5 22C14.721 22 14.933 21.9122 15.0893 21.7559C15.2455 21.5996 15.3333 21.3877 15.3333 21.1667V15.3333H21.1667C21.3877 15.3333 21.5996 15.2455 21.7559 15.0893C21.9122 14.933 22 14.721 22 14.5C22 14.279 21.9122 14.067 21.7559 13.9107C21.5996 13.7545 21.3877 13.6667 21.1667 13.6667H15.3333V7.83333C15.3333 7.61232 15.2455 7.40036 15.0893 7.24408C14.933 7.0878 14.721 7 14.5 7C14.279 7 14.067 7.0878 13.9107 7.24408C13.7545 7.40036 13.6667 7.61232 13.6667 7.83333V13.6667H7.83333C7.61232 13.6667 7.40036 13.7545 7.24408 13.9107C7.0878 14.067 7 14.279 7 14.5C7 14.721 7.0878 14.933 7.24408 15.0893C7.40036 15.2455 7.61232 15.3333 7.83333 15.3333H13.6667V21.1667Z" fill="white"/>
</svg>
