<svg width="29" height="36" viewBox="0 0 29 36" fill="none" xmlns="http://www.w3.org/2000/svg">
<path d="M8.94016 19.6684C8.94016 21.091 9.5053 22.4554 10.5113 23.4613C11.5172 24.4673 12.8816 25.0324 14.3043 25.0324C15.7269 25.0324 17.0913 24.4673 18.0972 23.4613C19.1032 22.4554 19.6684 21.091 19.6684 19.6684C19.6684 18.2457 19.1032 16.8813 18.0972 15.8754C17.0913 14.8694 15.7269 14.3043 14.3043 14.3043C12.8816 14.3043 11.5172 14.8694 10.5113 15.8754C9.5053 16.8813 8.94016 18.2457 8.94016 19.6684ZM28.6085 31.4515V10.7282L17.8803 0H3.57606C2.62763 0 1.71805 0.376763 1.0474 1.0474C0.376763 1.71805 0 2.62763 0 3.57606V32.1846C0 33.133 0.376763 34.0426 1.0474 34.7132C1.71805 35.3839 2.62763 35.7606 3.57606 35.7606H25.0324C25.8371 35.7606 26.5523 35.4924 27.1602 35.0454L19.2392 27.1244C17.8088 28.0542 16.0923 28.6085 14.3043 28.6085C11.9332 28.6085 9.65921 27.6666 7.98261 25.99C6.306 24.3134 5.3641 22.0394 5.3641 19.6684C5.3641 17.2973 6.306 15.0233 7.98261 13.3467C9.65921 11.6701 11.9332 10.7282 14.3043 10.7282C16.6753 10.7282 18.9493 11.6701 20.6259 13.3467C22.3025 15.0233 23.2444 17.2973 23.2444 19.6684C23.2444 21.4564 22.6901 23.1729 21.7603 24.5854L28.6085 31.4515Z" fill="#B950EF"/>
</svg>
