<svg width="17" height="17" viewBox="0 0 17 17" fill="none" xmlns="http://www.w3.org/2000/svg">
<path fill-rule="evenodd" clip-rule="evenodd" d="M0.355083 0.666202H7.10165C7.29777 0.666202 7.45673 0.825168 7.45673 1.02128V7.76785C7.45673 7.96397 7.29777 8.12294 7.10165 8.12294H0.355083C0.158966 8.12294 0 7.96397 0 7.76785V1.02128C0 0.825168 0.158966 0.666202 0.355083 0.666202ZM12.8787 0.103995L16.896 4.12131C17.0347 4.25997 17.0347 4.48478 16.896 4.62346L12.8787 8.64076C12.74 8.77942 12.5152 8.77942 12.3765 8.64076L8.35924 4.62344C8.22058 4.48478 8.22058 4.25997 8.35924 4.12129L12.3766 0.103995C12.5152 -0.0346649 12.74 -0.0346649 12.8787 0.103995ZM0.355083 9.54327H7.10165C7.29777 9.54327 7.45673 9.70223 7.45673 9.89835V16.6449C7.45673 16.841 7.29777 17 7.10165 17H0.355083C0.158966 17 0 16.841 0 16.6449V9.89835C0 9.70223 0.158966 9.54327 0.355083 9.54327ZM9.23215 9.54327H15.9787C16.1748 9.54327 16.3338 9.70223 16.3338 9.89835V16.6449C16.3338 16.841 16.1748 17 15.9787 17H9.23215C9.03603 17 8.87706 16.841 8.87706 16.6449V9.89835C8.87706 9.70223 9.03603 9.54327 9.23215 9.54327Z" fill="#B950EF"/>
</svg>
