<svg width="11" height="10" viewBox="0 0 11 10" fill="none" xmlns="http://www.w3.org/2000/svg">
<path d="M5.14131 0.726795C5.28803 0.429496 5.71197 0.429496 5.85869 0.726794L7.02334 3.08663C7.08161 3.20468 7.19423 3.28651 7.32452 3.30544L9.92875 3.68386C10.2568 3.73153 10.3878 4.13472 10.1504 4.36614L8.26599 6.20301C8.17172 6.29491 8.1287 6.42731 8.15095 6.55706L8.59581 9.15077C8.65185 9.47753 8.30888 9.72672 8.01543 9.57244L5.68614 8.34786C5.56961 8.28659 5.43039 8.28659 5.31386 8.34786L2.98457 9.57244C2.69112 9.72672 2.34815 9.47753 2.40419 9.15077L2.84905 6.55706C2.8713 6.42731 2.82828 6.29491 2.73401 6.20301L0.849569 4.36614C0.612162 4.13472 0.743166 3.73153 1.07125 3.68386L3.67548 3.30544C3.80577 3.28651 3.91839 3.20468 3.97666 3.08663L5.14131 0.726795Z" fill="#FFC120"/>
</svg>
